<?xml version="1.0" encoding="UTF-8" standalone="no"?>
<svg
   xmlns:dc="http://purl.org/dc/elements/1.1/"
   xmlns:cc="http://creativecommons.org/ns#"
   xmlns:rdf="http://www.w3.org/1999/02/22-rdf-syntax-ns#"
   xmlns:svg="http://www.w3.org/2000/svg"
   xmlns="http://www.w3.org/2000/svg"
   xmlns:xlink="http://www.w3.org/1999/xlink"
   xmlns:sodipodi="http://sodipodi.sourceforge.net/DTD/sodipodi-0.dtd"
   xmlns:inkscape="http://www.inkscape.org/namespaces/inkscape"
   viewBox="0 0 336.52466 466.25209"
   version="1.1"
   id="svg4"
   sodipodi:docname="Logo_EOD_teebag.svg"
   width="336.52466"
   height="466.25208"
   inkscape:version="0.92.4 5da689c313, 2019-01-14"
   inkscape:export-filename="/home/lyzz/projects/chaos/eod/Logo_EOD.svg.png"
   inkscape:export-xdpi="167"
   inkscape:export-ydpi="167">
  <metadata
     id="metadata10">
    <rdf:RDF>
      <cc:Work
         rdf:about="">
        <dc:format>image/svg+xml</dc:format>
        <dc:type
           rdf:resource="http://purl.org/dc/dcmitype/StillImage" />
        <dc:title></dc:title>
      </cc:Work>
    </rdf:RDF>
  </metadata>
  <defs
     id="defs8">
    <filter
       inkscape:label="Air Spray"
       inkscape:menu="Scatter"
       inkscape:menu-tooltip="Convert to small scattered particles with some thickness"
       style="color-interpolation-filters:sRGB"
       id="filter1142"
       width="2"
       height="2"
       y="-0.5"
       x="-0.5">
      <feTurbulence
         numOctaves="5"
         seed="0"
         type="fractalNoise"
         baseFrequency="0.08"
         id="feTurbulence1134" />
      <feGaussianBlur
         stdDeviation="0.5"
         result="result91"
         id="feGaussianBlur1136" />
      <feDisplacementMap
         scale="20"
         yChannelSelector="G"
         xChannelSelector="R"
         in="SourceGraphic"
         result="result1"
         in2="result91"
         id="feDisplacementMap1138" />
      <feComposite
         in="result1"
         in2="SourceGraphic"
         operator="atop"
         id="feComposite1140"
         result="fbSourceGraphic" />
      <feColorMatrix
         result="fbSourceGraphicAlpha"
         in="fbSourceGraphic"
         values="0 0 0 -1 0 0 0 0 -1 0 0 0 0 -1 0 0 0 0 1 0"
         id="feColorMatrix1577" />
      <feGaussianBlur
         id="feGaussianBlur1579"
         stdDeviation="0.01"
         result="result1"
         in="fbSourceGraphic" />
      <feBlend
         in2="result1"
         id="feBlend1581"
         result="fbSourceGraphic"
         mode="multiply" />
      <feTurbulence
         id="feTurbulence1583"
         baseFrequency="0.8"
         type="fractalNoise"
         seed="0"
         numOctaves="3"
         result="result3" />
      <feDisplacementMap
         in2="result3"
         id="feDisplacementMap1585"
         in="fbSourceGraphic"
         xChannelSelector="R"
         yChannelSelector="G"
         scale="50"
         result="result2" />
      <feMorphology
         id="feMorphology1587"
         radius="1"
         operator="dilate"
         result="result4" />
      <feBlend
         in2="result2"
         id="feBlend1589"
         mode="screen" />
    </filter>
    <filter
       inkscape:label="Air Spray"
       inkscape:menu="Scatter"
       inkscape:menu-tooltip="Convert to small scattered particles with some thickness"
       style="color-interpolation-filters:sRGB"
       id="filter1142-2"
       width="2"
       height="2"
       y="-0.5"
       x="-0.5">
      <feTurbulence
         numOctaves="5"
         seed="0"
         type="fractalNoise"
         baseFrequency="0.08"
         id="feTurbulence1134-3" />
      <feGaussianBlur
         stdDeviation="0.5"
         result="result91"
         id="feGaussianBlur1136-7" />
      <feDisplacementMap
         scale="20"
         yChannelSelector="G"
         xChannelSelector="R"
         in="SourceGraphic"
         result="result1"
         in2="result91"
         id="feDisplacementMap1138-5" />
      <feComposite
         in="result1"
         in2="SourceGraphic"
         operator="atop"
         id="feComposite1140-9"
         result="fbSourceGraphic" />
      <feColorMatrix
         result="fbSourceGraphicAlpha"
         in="fbSourceGraphic"
         values="0 0 0 -1 0 0 0 0 -1 0 0 0 0 -1 0 0 0 0 1 0"
         id="feColorMatrix1563" />
      <feGaussianBlur
         id="feGaussianBlur1565"
         stdDeviation="0.01"
         result="result1"
         in="fbSourceGraphic" />
      <feBlend
         in2="result1"
         id="feBlend1567"
         result="fbSourceGraphic"
         mode="multiply" />
      <feTurbulence
         id="feTurbulence1569"
         baseFrequency="0.8"
         type="fractalNoise"
         seed="0"
         numOctaves="3"
         result="result3" />
      <feDisplacementMap
         in2="result3"
         id="feDisplacementMap1571"
         in="fbSourceGraphic"
         xChannelSelector="R"
         yChannelSelector="G"
         scale="50"
         result="result2" />
      <feMorphology
         id="feMorphology1573"
         radius="1"
         operator="dilate"
         result="result4" />
      <feBlend
         in2="result2"
         id="feBlend1575"
         mode="screen" />
    </filter>
    <filter
       inkscape:label="Air Spray"
       inkscape:menu="Scatter"
       inkscape:menu-tooltip="Convert to small scattered particles with some thickness"
       style="color-interpolation-filters:sRGB"
       id="filter1142-28"
       width="2"
       height="2"
       y="-0.5"
       x="-0.5">
      <feTurbulence
         numOctaves="5"
         seed="0"
         type="fractalNoise"
         baseFrequency="0.08"
         id="feTurbulence1134-9" />
      <feGaussianBlur
         stdDeviation="0.5"
         result="result91"
         id="feGaussianBlur1136-73" />
      <feDisplacementMap
         scale="20"
         yChannelSelector="G"
         xChannelSelector="R"
         in="SourceGraphic"
         result="result1"
         in2="result91"
         id="feDisplacementMap1138-6" />
      <feComposite
         in="result1"
         in2="SourceGraphic"
         operator="atop"
         id="feComposite1140-1"
         result="fbSourceGraphic" />
      <feColorMatrix
         result="fbSourceGraphicAlpha"
         in="fbSourceGraphic"
         values="0 0 0 -1 0 0 0 0 -1 0 0 0 0 -1 0 0 0 0 1 0"
         id="feColorMatrix1549" />
      <feGaussianBlur
         id="feGaussianBlur1551"
         stdDeviation="0.01"
         result="result1"
         in="fbSourceGraphic" />
      <feBlend
         in2="result1"
         id="feBlend1553"
         result="fbSourceGraphic"
         mode="multiply" />
      <feTurbulence
         id="feTurbulence1555"
         baseFrequency="0.8"
         type="fractalNoise"
         seed="0"
         numOctaves="3"
         result="result3" />
      <feDisplacementMap
         in2="result3"
         id="feDisplacementMap1557"
         in="fbSourceGraphic"
         xChannelSelector="R"
         yChannelSelector="G"
         scale="50"
         result="result2" />
      <feMorphology
         id="feMorphology1559"
         radius="1"
         operator="dilate"
         result="result4" />
      <feBlend
         in2="result2"
         id="feBlend1561"
         mode="screen" />
    </filter>
    <filter
       inkscape:label="Air Spray"
       inkscape:menu="Scatter"
       inkscape:menu-tooltip="Convert to small scattered particles with some thickness"
       width="2"
       height="2"
       y="-0.5"
       x="-0.5"
       style="color-interpolation-filters:sRGB"
       id="filter1877">
      <feGaussianBlur
         stdDeviation="0.01"
         result="result1"
         id="feGaussianBlur1865" />
      <feBlend
         in2="result1"
         result="fbSourceGraphic"
         mode="multiply"
         id="feBlend1867" />
      <feTurbulence
         baseFrequency="0.8"
         type="fractalNoise"
         seed="0"
         numOctaves="3"
         result="result3"
         id="feTurbulence1869" />
      <feDisplacementMap
         in="fbSourceGraphic"
         xChannelSelector="R"
         yChannelSelector="G"
         scale="50"
         result="result2"
         in2="result3"
         id="feDisplacementMap1871" />
      <feMorphology
         radius="1"
         operator="dilate"
         result="result4"
         id="feMorphology1873" />
      <feBlend
         mode="screen"
         in2="result2"
         id="feBlend1875" />
    </filter>
    <filter
       inkscape:label="Air Spray"
       inkscape:menu="Scatter"
       inkscape:menu-tooltip="Convert to small scattered particles with some thickness"
       width="2"
       height="2"
       y="-0.5"
       x="-0.5"
       style="color-interpolation-filters:sRGB"
       id="filter2137">
      <feGaussianBlur
         stdDeviation="0.01"
         result="result1"
         id="feGaussianBlur2125" />
      <feBlend
         in2="result1"
         result="fbSourceGraphic"
         mode="multiply"
         id="feBlend2127" />
      <feTurbulence
         baseFrequency="0.8"
         type="fractalNoise"
         seed="0"
         numOctaves="3"
         result="result3"
         id="feTurbulence2129" />
      <feDisplacementMap
         in="fbSourceGraphic"
         xChannelSelector="R"
         yChannelSelector="G"
         scale="50"
         result="result2"
         in2="result3"
         id="feDisplacementMap2131" />
      <feMorphology
         radius="1"
         operator="dilate"
         result="result4"
         id="feMorphology2133" />
      <feBlend
         mode="screen"
         in2="result2"
         id="feBlend2135" />
    </filter>
    <filter
       inkscape:label="Air Spray"
       inkscape:menu="Scatter"
       inkscape:menu-tooltip="Convert to small scattered particles with some thickness"
       width="2"
       height="2"
       y="-0.5"
       x="-0.5"
       style="color-interpolation-filters:sRGB"
       id="filter2221">
      <feGaussianBlur
         stdDeviation="0.01"
         result="result1"
         id="feGaussianBlur2209" />
      <feBlend
         in2="result1"
         result="fbSourceGraphic"
         mode="multiply"
         id="feBlend2211" />
      <feTurbulence
         baseFrequency="0.8"
         type="fractalNoise"
         seed="0"
         numOctaves="3"
         result="result3"
         id="feTurbulence2213" />
      <feDisplacementMap
         in="fbSourceGraphic"
         xChannelSelector="R"
         yChannelSelector="G"
         scale="50"
         result="result2"
         in2="result3"
         id="feDisplacementMap2215" />
      <feMorphology
         radius="1"
         operator="dilate"
         result="result4"
         id="feMorphology2217" />
      <feBlend
         mode="screen"
         in2="result2"
         id="feBlend2219"
         result="fbSourceGraphic" />
      <feColorMatrix
         result="fbSourceGraphicAlpha"
         in="fbSourceGraphic"
         values="0 0 0 -1 0 0 0 0 -1 0 0 0 0 -1 0 0 0 0 1 0"
         id="feColorMatrix2259" />
      <feGaussianBlur
         id="feGaussianBlur2261"
         stdDeviation="0.01"
         result="result1"
         in="fbSourceGraphic" />
      <feBlend
         in2="result1"
         id="feBlend2263"
         result="fbSourceGraphic"
         mode="multiply" />
      <feTurbulence
         id="feTurbulence2265"
         baseFrequency="0.8"
         type="fractalNoise"
         seed="0"
         numOctaves="3"
         result="result3" />
      <feDisplacementMap
         in2="result3"
         id="feDisplacementMap2267"
         in="fbSourceGraphic"
         xChannelSelector="R"
         yChannelSelector="G"
         scale="50"
         result="result2" />
      <feMorphology
         id="feMorphology2269"
         radius="1"
         operator="dilate"
         result="result4" />
      <feBlend
         in2="result2"
         id="feBlend2271"
         mode="screen" />
    </filter>
    <linearGradient
       id="linearGradient6287"
       inkscape:collect="always">
      <stop
         id="stop6289"
         offset="0"
         style="stop-color:#000000;stop-opacity:1;" />
      <stop
         id="stop6291"
         offset="1"
         style="stop-color:#000000;stop-opacity:0;" />
    </linearGradient>
    <linearGradient
       gradientUnits="userSpaceOnUse"
       y2="429.34448"
       x2="264.992"
       y1="429.34448"
       x1="241.81801"
       id="linearGradient6293"
       xlink:href="#linearGradient6287"
       inkscape:collect="always" />
    <filter
       inkscape:label="Air Spray"
       inkscape:menu="Scatter"
       inkscape:menu-tooltip="Convert to small scattered particles with some thickness"
       width="2"
       height="2"
       y="-0.5"
       x="-0.5"
       style="color-interpolation-filters:sRGB"
       id="filter2221-3">
      <feGaussianBlur
         stdDeviation="0.01"
         result="result1"
         id="feGaussianBlur2209-6" />
      <feBlend
         in2="result1"
         result="fbSourceGraphic"
         mode="multiply"
         id="feBlend2211-7" />
      <feTurbulence
         baseFrequency="0.8"
         type="fractalNoise"
         seed="0"
         numOctaves="3"
         result="result3"
         id="feTurbulence2213-5" />
      <feDisplacementMap
         xChannelSelector="R"
         yChannelSelector="G"
         scale="50"
         result="result2"
         in2="result3"
         id="feDisplacementMap2215-3"
         in="fbSourceGraphic" />
      <feMorphology
         radius="1"
         operator="dilate"
         result="result4"
         id="feMorphology2217-5" />
      <feBlend
         mode="lighten"
         id="feBlend2219-6"
         result="fbSourceGraphic"
         in2="result2" />
      <feColorMatrix
         result="fbSourceGraphicAlpha"
         in="fbSourceGraphic"
         values="0 0 0 -1 0 0 0 0 -1 0 0 0 0 -1 0 0 0 0 1 0"
         id="feColorMatrix2259-2" />
      <feGaussianBlur
         id="feGaussianBlur2261-9"
         stdDeviation="6.0099999999999998"
         result="result1"
         in="fbSourceGraphic" />
      <feBlend
         in2="result1"
         id="feBlend2263-1"
         result="fbSourceGraphic"
         mode="lighten" />
      <feTurbulence
         id="feTurbulence2265-2"
         baseFrequency="0.8"
         type="fractalNoise"
         seed="0"
         numOctaves="3"
         result="result3" />
      <feDisplacementMap
         in2="result3"
         id="feDisplacementMap2267-7"
         in="fbSourceGraphic"
         xChannelSelector="R"
         yChannelSelector="G"
         scale="50"
         result="result2" />
      <feMorphology
         id="feMorphology2269-0"
         radius="1"
         operator="dilate"
         result="result4" />
      <feBlend
         in2="result2"
         id="feBlend2271-9"
         mode="screen" />
    </filter>
  </defs>
  <sodipodi:namedview
     pagecolor="#ffffff"
     bordercolor="#666666"
     borderopacity="1"
     objecttolerance="10"
     gridtolerance="10"
     guidetolerance="10"
     inkscape:pageopacity="0"
     inkscape:pageshadow="2"
     inkscape:window-width="1362"
     inkscape:window-height="729"
     id="namedview6"
     showgrid="false"
     showguides="false"
     fit-margin-top="0"
     fit-margin-left="0"
     fit-margin-right="0"
     fit-margin-bottom="0"
     inkscape:zoom="0.6219258"
     inkscape:cx="347.83443"
     inkscape:cy="162.70689"
     inkscape:window-x="0"
     inkscape:window-y="18"
     inkscape:window-maximized="0"
     inkscape:current-layer="svg4" />
  <path
     style="color:#000000;font-style:normal;font-variant:normal;font-weight:normal;font-stretch:normal;font-size:medium;line-height:normal;font-family:Sans;-inkscape-font-specification:Sans;text-indent:0;text-align:start;text-decoration:none;text-decoration-line:none;letter-spacing:normal;word-spacing:normal;text-transform:none;writing-mode:lr-tb;direction:ltr;baseline-shift:baseline;text-anchor:start;display:inline;overflow:visible;visibility:visible;fill:#ea5b0c;fill-opacity:1;stroke:none;stroke-width:1.29999995;stroke-miterlimit:4;stroke-dasharray:none;stroke-opacity:1;marker:none;enable-background:accumulate"
     d="M 68.253209,0 1.3616,83.290905 0,463.66337 l 55.795109,0.19962 0.0176,0.0723 148.838071,2.31677 c 43.1682,-0.46407 86.33642,-0.92821 129.50463,-1.3923 l 0.77665,-217.09262 c -11.0878,35.61332 -23.16374,57.76961 -27.35741,64.9017 l 15.3999,10.27515 0.42812,2.59533 -11.53431,-7.72982 -2.79705,4.14703 15.46442,10.33565 0.82484,5.00318 -18.33143,-12.28424 -2.79505,4.17831 22.2283,14.89204 0.82484,5.00316 -25.09531,-16.84063 -2.79701,4.17832 29.0254,19.44646 -5e-5,0.0311 -61.61194,92.37404 -12.34726,-8.23105 22.49676,-33.8582 -18.39387,-12.25294 26.51867,-39.90482 -17.77049,-11.84526 -26.51869,39.87356 -19.82639,-13.195 -22.49675,33.85627 -10.29725,-6.87548 -0.9568,-4.08311 60.05353,-89.99178 0.12491,-0.0313 31.05004,20.80011 2.79705,-4.14707 -27.74727,-18.59997 4.50454,-1.45131 25.28488,16.96544 2.79507,-4.14706 -22.00941,-14.73402 4.50456,-1.45329 19.54699,13.10149 2.79704,-4.14705 -16.27353,-10.90133 2.31379,-0.74232 19.79707,13.19698 c 5.8554,-9.94987 26.60952,-48.53139 38.37454,-113.02104 l 0.3851,-107.967045 -77.79447,-83.810653 -24.96884,-0.08878 -0.0175,0.111337 -103.93747,0.09385 c 0.11151,-0.191656 0.21684,-0.386368 0.33151,-0.576474 z m 109.869491,352.89896 0.26172,4.1e-4 -0.10294,0.67586 z m 62.54995,29.32439 17.77436,11.84138 -4.15646,6.25571 -17.78023,-11.8394 z m -42.51634,20.86849 3.05457,2.0109 -1.79056,2.68131 -3.05454,-2.01091 z m 7.20159,4.77474 2.36861,1.57209 -1.79054,2.6813 -2.36861,-1.57208 z m 6.51564,4.33592 2.36862,1.57209 -1.79057,2.68129 -2.36861,-1.5721 z m 6.54689,4.33588 2.37056,1.57208 -1.82375,2.67939 -2.36861,-1.57014 z m 6.51563,4.33593 2.3393,1.5721 -1.79249,2.67934 -2.33735,-1.57015 z m 6.54689,4.33587 2.33932,1.57211 -1.79056,2.67934 -2.37056,-1.57011 z m 6.51563,4.33591 2.33932,1.57211 -1.79055,2.67936 -2.37056,-1.57011 z m 6.51563,4.33592 2.37058,1.57207 -1.79056,2.67937 -2.37056,-1.57012 z m 6.51756,4.30466 3.21093,2.13578 -1.79055,2.68131 -3.21287,-2.13577 z"
     id="line71"
     inkscape:connector-curvature="0"
     sodipodi:nodetypes="ccccccccccccccccccccccccccccccccccccccccccccccccccccccccccccccccccccccccccccccccccccccccccccccccccccccccccccccc" />
  <text
     xml:space="preserve"
     style="font-style:normal;font-variant:normal;font-weight:normal;font-stretch:normal;font-size:40px;line-height:1.25;font-family:'A Charming Font Superexpanded';-inkscape-font-specification:'A Charming Font Superexpanded';letter-spacing:0px;word-spacing:0px;fill:#000000;fill-opacity:1;stroke:none"
     x="67.366371"
     y="454.28394"
     id="text1134"
     transform="rotate(-0.52879311)"><tspan
       sodipodi:role="line"
       id="tspan1132"
       x="67.366371"
       y="454.28394"
       style="font-style:normal;font-variant:normal;font-weight:normal;font-stretch:normal;font-size:56px;font-family:Hack;-inkscape-font-specification:Hack">lyzz</tspan></text>
  <g
     id="g4809"
     transform="translate(-46.991566,-67.001717)">
    <path
       style="fill:#000000;fill-opacity:1;fill-rule:evenodd;stroke:none;stroke-width:0.83318222"
       id="path2932-3"
       d="m 304.71224,67.678389 c 0,0 -155.57507,157.728161 -157.64886,162.960721 -2.59014,6.39725 178.89767,-140.611263 178.89767,-140.611263 z m -4.676,16.028998 2.4367,2.598714 -28.0708,23.083799 c 0.5063,-1.59517 25.6341,-25.682513 25.6341,-25.682513 z"
       inkscape:connector-curvature="0"
       sodipodi:nodetypes="cccccccc" />
    <path
       inkscape:connector-curvature="0"
       id="path2-3"
       d="m 49.78039,290.57713 c 0.877544,1.45968 1.909849,2.92548 3.157368,4.39613 l 46.293202,46.28899 96.11438,-13.02499 -7.69369,-7.9071 c -1.17427,1.04567 -3.002,1.5067 -4.87575,1.07239 z"
       style="stroke-width:0.38311568" />
    <path
       inkscape:connector-curvature="0"
       id="path2-2-6"
       d="m 206.6186,194.11989 -23.53425,45.42162 74.70127,19.32526 c 1.29523,0.33504 2.601,-0.0732 3.47419,-0.95854 l -43.52415,-55.91605 c -3.21136,-3.81409 -7.11753,-6.15488 -11.11706,-7.87229 z"
       style="stroke-width:0.29248601" />
    <path
       inkscape:transform-center-y="-85.41323"
       inkscape:transform-center-x="-85.071388"
       id="path2-2-8-6"
       d="m 77.429614,142.24422 c -0.725033,-0.64706 -1.825751,-0.70112 -2.278194,-0.97726 -9.563927,1.23657 -13.916775,2.3623 -23.986513,5.52472 0,0 -3.194214,4.06606 1.188259,5.50094 1.246978,1.38212 -4.44424,11.53962 3.042152,12.8833 l 8.889556,61.4054 c 0.848264,9.39063 -6.582151,16.7263 -6.806562,27.783 l 13.596582,11.48692 40.898596,-30.72929 C 106.3758,228.69853 99.401542,224.30721 97.762622,218.37705 L 79.98289,159.55966 c 4.690288,-3.46759 -1.050531,-10.38845 -2.522985,-12.77746 1.046188,-2.65117 0.694756,-3.89092 -0.03029,-4.53798 z"
       style="stroke-width:0.29248601"
       inkscape:connector-curvature="0" />
    <path
       style="fill:#000000;fill-opacity:1;fill-rule:evenodd;stroke:none;stroke-width:0.76458025"
       id="path2884-4"
       d="m 105.88852,220.21166 c 1.2097,1.13793 1.48932,2.99775 0.48186,4.00945 -1.00745,1.01168 -2.99986,0.47974 -4.51167,0.0373 -1.51181,-0.44244 -1.45379,-0.65979 -1.53557,-1.80705 -0.0818,-1.14725 -0.1829,-2.22207 1.20844,-2.78199 1.39135,-0.55994 3.14723,-0.59564 4.35694,0.54229 z"
       inkscape:connector-curvature="0" />
    <path
       style="fill:#000000;fill-opacity:1;fill-rule:evenodd;stroke:none;stroke-width:0.76458025"
       id="path2886-7"
       d="m 113.1442,219.19939 c 0.77024,0.74895 0.97759,2.00735 0.50157,2.77284 -0.47602,0.76551 -1.52904,0.6396 -2.40568,0.28913 -0.87662,-0.35047 -0.93202,-0.86977 -1.10085,-1.691 -0.16883,-0.82123 -0.32569,-1.25119 0.42555,-1.59393 0.75125,-0.34275 1.80917,-0.52599 2.57941,0.22296 z"
       inkscape:connector-curvature="0" />
    <path
       style="fill:#000000;fill-opacity:1;fill-rule:evenodd;stroke:none;stroke-width:0.76458025"
       id="path2888-8"
       d="m 128.5582,235.88841 c 1.78966,0.12854 2.8694,-0.28173 4.68542,0.47477 1.81604,0.75651 1.20479,1.44708 2.57873,2.55125 1.37396,1.10417 1.68081,0.68159 2.91707,1.86542 1.23626,1.18384 2.32286,2.05605 2.02796,2.86991 -0.29491,0.81384 -1.69066,-0.0633 -3.20756,0.38549 -1.5169,0.44879 -1.54362,0.98497 -2.86005,1.40966 -1.31643,0.4247 -1.20037,-0.01 -2.40567,0.28913 -1.20529,0.29912 -1.50019,1.11298 -2.41552,0.90741 -0.91531,-0.20556 -0.37174,-0.64256 -1.24574,-1.72967 -0.87401,-1.08713 -1.52573,-2.42535 -2.25024,-2.61879 -0.72452,-0.19343 -2.60351,-0.42343 -4.05729,-1.08322 -1.45378,-0.65979 -1.66639,-0.44489 -1.75783,-1.55593 -0.0915,-1.11105 0.0126,-1.93702 1.39202,-2.88822 1.37939,-0.9512 2.47583,-0.69728 4.1255,-0.91657 1.64967,-0.21931 0.68355,-0.0892 2.4732,0.0394 z"
       inkscape:connector-curvature="0" />
    <path
       style="fill:#000000;fill-opacity:1;fill-rule:evenodd;stroke:none;stroke-width:0.76458025"
       id="path2890-4"
       d="m 137.49872,254.72993 c 1.47857,-1.46804 1.50543,-2.58629 2.57093,-3.81533 1.06549,-1.22905 -0.0721,-1.1835 1.691,-1.10085 1.7631,0.0826 2.57204,0.68668 5.36142,1.43139 2.78939,0.74471 3.97041,0.82717 5.79613,1.54746 1.8257,0.72028 1.22921,0.48341 1.5067,1.33365 0.2775,0.85025 0.14456,1.20284 -0.3967,2.06733 -0.54125,0.86451 -0.86256,1.0504 -1.76836,1.39067 -0.90583,0.34029 -1.09152,-0.56309 -1.85491,-0.0295 -0.76337,0.53356 -1.25874,1.3715 -1.1986,2.16371 0.0602,0.79222 0.89122,0.005 1.4392,1.00516 0.54795,1.00007 1.05247,1.87214 0.75267,2.99513 -0.29983,1.123 -0.72485,0.9707 -1.95195,1.49688 -1.22711,0.52615 -1.04598,0.57451 -2.95644,0.60776 -1.91046,0.0333 -2.52631,-0.13116 -4.68543,-0.47477 -2.15913,-0.34359 -3.22656,-0.70619 -3.95107,-0.89963 -0.72452,-0.19343 -2.32092,-0.4644 -3.7288,-1.15074 -1.40789,-0.68635 -1.46591,-0.469 -1.90275,-1.59461 -0.43682,-1.12564 -0.32797,-1.6787 0.15544,-2.90791 0.48341,-1.22921 0.49785,-0.99252 1.77821,-2.00896 1.28037,-1.01644 1.86473,-0.58877 3.3433,-2.05681 z"
       inkscape:connector-curvature="0" />
    <path
       style="fill:#000000;fill-opacity:1;fill-rule:evenodd;stroke:none;stroke-width:0.76458025"
       id="path2892-5"
       d="m 140.41603,288.57315 c 1.54788,1.03418 2.88102,1.27369 3.84418,3.04434 0.96316,1.77065 0.14175,2.52154 0.008,4.03827 -0.1333,1.51674 0.3642,1.68837 -0.54161,2.02867 -0.90582,0.34028 -1.88392,0.0791 -3.08165,-0.66752 -1.19776,-0.74664 -0.66387,-1.14743 -1.70931,-2.31914 -1.04546,-1.17169 -1.20478,-1.44707 -2.47251,-2.36766 -1.26773,-0.92058 -1.99488,-0.37736 -2.59841,-1.31466 -0.60354,-0.9373 -0.0238,-1.36462 0.18427,-2.43451 0.20801,-1.06989 -0.357,-1.57002 0.64783,-1.84505 1.00481,-0.27504 1.94176,0.28557 3.37145,0.74489 1.42969,0.45933 0.79942,0.0582 2.34729,1.09237 z"
       inkscape:connector-curvature="0" />
    <path
       style="fill:#000000;fill-opacity:1;fill-rule:evenodd;stroke:none;stroke-width:0.76458025"
       id="path2894-0"
       d="m 203.93267,124.20083 c 1.34173,-0.87501 2.30911,-0.99815 3.95727,-2.28949 1.64815,-1.29135 2.13641,-2.46438 2.63534,-2.87588 0.49894,-0.41149 2.02244,-1.89173 3.07611,-3.06944 1.05366,-1.17771 0.15159,-0.93221 1.13856,-1.64139 0.98692,-0.70919 2.446,-1.29233 2.80919,-1.19536 0.36317,0.097 1.45256,0.97141 2.52749,1.60857 1.07492,0.63715 0.62332,0.65275 1.7722,0.94003 1.14888,0.28726 1.52907,0.17478 2.82331,0.20907 1.29424,0.0343 1.17822,-0.69703 2.35364,-0.072 1.17542,0.62508 1.91615,1.34809 2.34802,2.57224 0.43187,1.22416 0.0227,1.15381 -0.62056,2.32438 -0.64325,1.17056 -1.63748,2.05289 -1.95237,2.35789 -0.31487,0.30501 -0.74627,1.6294 -1.60856,2.52749 -0.86228,0.89809 -0.61996,0.28191 -1.8406,1.06488 -1.22062,0.78297 -2.71256,1.9993 -3.0419,2.067 -0.32933,0.0677 -1.8405,0.7731 -2.94495,1.70381 -1.10444,0.93071 -0.42284,1.07377 -1.47281,2.01903 -1.04996,0.94525 -1.20371,0.86531 -2.72703,1.762 -1.52334,0.89668 -1.94223,0.86266 -3.36631,1.82475 -1.42409,0.9621 -1.06716,1.73826 -2.33001,2.02362 -1.26284,0.28536 -2.03383,-0.54299 -2.7214,-0.88219 -0.68756,-0.33924 -1.91221,-2.45589 -2.05255,-2.80462 -0.14034,-0.34872 -0.8565,-2.32965 -0.99683,-2.67837 -0.14034,-0.34873 -0.72568,-2.52818 -0.79339,-2.85751 -0.0677,-0.32933 0.0976,-2.69743 0.48516,-2.98304 0.3875,-0.28562 2.42432,-1.57812 2.54298,-1.65551 z"
       inkscape:connector-curvature="0" />
    <path
       style="fill:#000000;fill-opacity:1;fill-rule:evenodd;stroke:none;stroke-width:0.76458025"
       id="path2896-3"
       d="m 257.77138,137.64101 c 1.47099,0.10092 3.11879,-0.0233 3.41428,-0.25567 0.29548,-0.23237 0.95185,-0.79636 2.02465,-1.17137 1.0728,-0.375 0.86344,-0.6838 2.26655,-0.32864 1.40311,0.35513 2.52413,0.67389 3.34589,1.74924 0.82175,1.07535 0.0274,1.42745 -0.0589,2.55216 -0.0863,1.12472 -0.36466,0.85587 -0.28629,1.94674 0.0784,1.09087 1.0275,1.32482 0.59979,2.41675 -0.4277,1.09193 -1.77781,1.70415 -2.3106,1.95098 -0.53278,0.24683 -1.54511,0.83252 -2.74642,1.83464 -1.20133,1.00211 -1.52607,1.92699 -2.05885,2.17382 -0.53279,0.24683 -2.59129,1.25354 -3.06589,1.28246 -0.47462,0.0289 -2.64453,1.1615 -3.3226,1.36954 -0.67805,0.20804 -1.7401,1.0528 -3.23549,1.62624 -1.49539,0.57344 -2.31025,0.78386 -2.74607,0.6675 -0.43583,-0.11635 -2.18405,-0.27184 -2.85224,-0.68369 -0.66817,-0.41186 -0.96826,-1.03665 -1.69463,-1.23058 -0.72636,-0.19393 -1.81099,-0.79476 -2.24189,-1.22103 -0.43089,-0.4263 -0.6823,-1.81627 -0.96791,-2.20377 -0.28562,-0.38752 -0.0526,-2.42628 -0.17352,-2.84764 -0.12094,-0.42137 0.11671,-1.60295 0.27184,-2.18405 0.15515,-0.58109 0.75598,-1.66571 1.27429,-2.14985 0.51832,-0.48413 0.75563,-0.49859 1.4097,-1.49118 0.65406,-0.9926 1.61808,-1.98025 1.80708,-2.39667 0.18902,-0.41642 1.79229,-1.46686 2.23304,-1.66044 0.44076,-0.19358 1.61775,-0.81312 2.00527,-1.09873 0.3875,-0.28562 1.39234,-0.11461 2.55215,0.0589 1.1598,0.17346 1.57862,0.49925 2.08708,0.635 0.50846,0.13575 0.99867,0.55842 2.46965,0.65935 z"
       inkscape:connector-curvature="0" />
    <path
       style="fill:#000000;fill-opacity:1;fill-rule:evenodd;stroke:none;stroke-width:0.76458025"
       id="path2898-6"
       d="m 245.5911,238.34908 c 2.4022,-0.54532 4.21839,-0.93586 7.48262,-1.50392 3.26425,-0.56807 5.13852,-0.88473 5.57434,-0.76838 0.43582,0.11635 1.57607,0.94602 2.71613,2.35926 1.14008,1.41323 1.48978,2.07075 1.84416,3.29368 0.35439,1.22291 -0.0401,0.51454 -0.42664,1.598 -0.38655,1.08348 -0.0731,1.7313 -1.11949,2.73587 -1.04636,1.00459 -2.73657,1.21476 -3.06591,1.28246 -0.32933,0.0677 -0.8238,1.62815 -2.34445,1.78632 -1.5207,0.15816 -2.43581,-0.49469 -3.73834,-1.15369 -1.30252,-0.65904 -1.01656,-1.43862 -1.47178,-1.48234 -0.45523,-0.0437 -2.95413,-0.0106 -3.53522,-0.16571 -0.5811,-0.15513 -2.04371,0.0769 -3.08001,-0.12196 -1.03629,-0.19894 -1.77688,-1.50545 -2.58039,-2.86772 -0.80351,-1.3623 -0.78387,-2.31028 -0.63366,-2.58143 0.1504,-0.27106 1.15778,-1.13046 2.25243,-1.73307 1.09467,-0.6026 -0.27602,-0.13202 2.12621,-0.67737 z"
       inkscape:connector-curvature="0" />
    <path
       style="fill:#000000;fill-opacity:1;fill-rule:evenodd;stroke:none;stroke-width:0.76458025"
       id="path2900-1"
       d="m 200.02398,290.69159 c 1.22754,0.98252 2.10375,1.59271 3.38433,2.77111 1.28058,1.1784 1.57483,1.02352 1.73801,1.94249 0.16317,0.91897 0.5722,1.57287 -1.08527,1.73343 -1.65752,0.16055 -4.76512,-0.80531 -5.54472,-1.09126 -0.77961,-0.28598 -3.08937,-1.25278 -4.15442,-2.5098 -1.06506,-1.25703 -0.0769,-2.04371 -0.1058,-2.51832 -0.0289,-0.47461 0.38326,-2.30993 0.67383,-2.23235 0.29053,0.0776 1.51559,0.73534 2.78912,1.21153 1.27351,0.47619 1.01605,-0.33844 2.30497,0.69323 z"
       inkscape:connector-curvature="0" />
    <path
       style="fill:#000000;fill-opacity:1;fill-rule:evenodd;stroke:none;stroke-width:0.76458025"
       id="path2902-0"
       d="m 216.47972,291.4277 c 1.68592,0.0901 3.39217,0.84727 5.99501,1.44493 2.60287,0.59762 3.90793,0.80991 4.41639,0.94566 0.50846,0.13574 5.44283,1.76438 6.00454,1.99217 0.56168,0.22782 0.51058,1.1479 1.54901,2.35892 1.03842,1.21101 1.42587,1.21719 2.60472,2.48513 1.17887,1.26797 1.70908,1.4679 2.11071,2.5867 0.40163,1.11882 -0.0475,0.97947 -0.50421,1.88856 -0.45672,0.9091 -0.13601,1.38381 -1.32261,1.74788 -1.18661,0.36408 -2.22775,0.18337 -3.4238,-0.29158 -1.19604,-0.47496 -5.92202,-2.59267 -6.43049,-2.72842 -0.50845,-0.13574 -5.93189,-1.97276 -6.53237,-2.05527 -0.60051,-0.0825 -3.73833,-1.1537 -4.02888,-1.23127 -0.29053,-0.0776 -1.69851,-0.41455 -2.4598,-1.27923 -0.76128,-0.86467 -0.71033,-1.20123 -0.58534,-2.17946 0.12499,-0.9782 0.98835,-1.37022 1.08527,-1.73343 0.0969,-0.36319 0.32015,-1.78206 0.0733,-2.31485 -0.24683,-0.53278 1.31231,-1.64373 1.44849,-1.63646 z"
       inkscape:connector-curvature="0" />
    <path
       style="fill:#000000;fill-opacity:1;fill-rule:evenodd;stroke:none;stroke-width:0.76458025"
       id="path2904-6"
       d="m 214.70114,328.69282 c 0.75069,-0.18865 -1.94588,-3.20411 -3.78068,-5.36698 -1.8348,-2.16287 -2.59511,-2.22968 -3.55853,-3.28449 -0.96342,-1.05481 -0.92612,-0.24725 -0.29513,-0.93475 0.63099,-0.6875 1.70255,-0.98501 2.81907,-1.81523 1.1165,-0.83022 -0.0673,-1.78824 1.647,-1.50565 1.71428,0.28261 0.82801,0.39616 5.21012,2.63604 4.3821,2.23989 6.83598,3.03121 12.31831,6.32352 5.48235,3.29233 9.33988,6.69555 9.61103,6.84577 0.27105,0.15039 7.38854,5.55206 7.38854,5.55206 l -31.35973,-8.4503 z"
       inkscape:connector-curvature="0" />
    <path
       style="fill:#000000;fill-opacity:1;fill-rule:evenodd;stroke:none;stroke-width:0.76458025"
       id="path2906-3"
       d="m 150.28223,188.49285 c -3.35751,6.19506 -2.08862,0.84879 -4.0733,0.41796 -1.98468,-0.43082 -3.60908,-1.91437 -3.86542,-2.1413 -0.25638,-0.22688 -1.8979,-2.09137 -2.20847,-2.41199 -0.31058,-0.32063 -1.19777,-1.746 -1.29615,-2.56461 -0.0984,-0.81861 0.43979,-3.13118 0.43009,-3.6884 -0.01,-0.55724 0.0845,-2.39408 0.81967,-3.66363 0.73497,-1.26965 0.89273,-0.67285 2.12082,-1.41464 1.22809,-0.74178 1.64475,-0.67016 2.79152,-1.55252 1.14677,-0.88234 1.71655,-1.68103 1.79554,-1.97688 0.0789,-0.29586 0.34141,-3.94979 0.36617,-4.33935 0.0248,-0.38953 -0.0635,-1.83934 -0.0338,-2.54449 0.0298,-0.70516 0.91886,-1.4384 2.18007,-1.63652 1.26121,-0.19811 1.95128,0.77847 2.86479,0.84402 0.91349,0.0656 0.6362,-0.30554 0.78916,-0.58164 0.15321,-0.27594 0.66224,-0.774 1.95281,-0.19175 1.29057,0.58227 2.02867,1.74994 3.20947,2.52079 1.18081,0.77081 3.47445,-5.66862 1.51371,0.56261 -1.96075,6.23122 -5.99921,18.16723 -9.35672,24.36228 z"
       inkscape:connector-curvature="0" />
    <path
       style="fill:#000000;fill-opacity:1;fill-rule:evenodd;stroke:none;stroke-width:0.76458025"
       id="path2908-2"
       d="m 170.12731,181.82677 c 0.0987,-0.36982 -0.42717,-2.03547 0.22293,-3.50601 0.65013,-1.47054 0.90775,-1.32253 2.37755,-2.37613 1.46981,-1.05362 2.02702,-1.06332 3.50168,-1.83831 1.47466,-0.77501 1.26274,-1.16832 2.39694,-1.26169 1.1342,-0.0933 1.41273,0.19891 2.13987,0.88825 0.72715,0.68935 0.61496,0.73863 0.76873,1.86915 0.15377,1.13052 0.18931,1.81351 -0.15365,2.65294 -0.34297,0.83943 -0.91735,0.46819 -1.21822,0.70479 -0.30088,0.23662 -1.18625,1.03028 -1.65264,2.33198 -0.46637,1.3017 -0.0116,1.6014 -0.21287,2.87482 -0.20132,1.27343 0.11418,1.57556 -0.5924,2.21887 -0.70659,0.64332 -1.58299,0.29047 -2.23394,0.3544 -0.65094,0.0639 -3.1362,-0.12422 -3.52074,-0.46458 -0.38453,-0.34036 -1.38519,-1.63756 -1.45411,-1.9729 -0.069,-0.33534 -0.38887,-2.40161 -0.36913,-2.47558 z"
       inkscape:connector-curvature="0" />
    <path
       style="fill:#000000;fill-opacity:1;fill-rule:evenodd;stroke:none;stroke-width:0.76458025"
       id="path2910-0"
       d="m 168.6496,193.00044 c 0.81699,1.16894 0.52171,3.38788 0.20612,3.38286 -0.31558,-0.005 -1.02612,1.4692 -1.78549,1.34569 -0.75935,-0.12355 -2.22389,-0.27682 -2.59369,-0.37554 -0.36984,-0.0987 -1.62108,-0.23471 -2.12014,-0.9622 -0.49908,-0.7275 -0.14758,-1.2279 0.12385,-1.94778 0.27138,-0.71989 0.829,-1.918 0.98195,-2.1941 0.15322,-0.27596 0.82865,-0.72958 2.12551,-0.54181 1.29685,0.18776 2.24488,0.12394 3.06189,1.29288 z"
       inkscape:connector-curvature="0" />
    <path
       style="fill:#000000;fill-opacity:1;fill-rule:evenodd;stroke:none;stroke-width:0.76458025"
       id="path2912-6"
       d="m 116.09794,209.39601 c 0.22093,3.32738 -1.03221,1.26948 -2.31829,2.15425 -1.28607,0.88477 -2.53013,1.46383 -2.82598,1.38484 -0.29587,-0.0789 -1.22791,0.14757 -1.74564,0.009 -0.51774,-0.13823 -1.07005,-0.14702 -1.7306,-0.93741 -0.66054,-0.7904 -0.66531,-1.36612 -0.91161,-2.22423 -0.24631,-0.85811 -0.57628,-2.29318 -0.80786,-2.90965 -0.23159,-0.61646 -0.97085,-2.00235 -1.12848,-2.59907 -0.15763,-0.59672 -0.0883,-1.4498 0.2373,-2.07597 0.32567,-0.62615 1.41065,-1.12883 2.02713,-1.36041 0.61646,-0.23158 1.92335,-0.675 2.46586,-0.92634 0.54251,-0.25133 1.36112,-0.34972 1.8494,-0.69475 0.4883,-0.34505 0.46458,-3.52074 1.68676,-0.97588 1.22219,2.54485 2.98108,7.82792 3.202,11.1553 z"
       inkscape:connector-curvature="0" />
    <path
       style="fill:#000000;fill-opacity:1;fill-rule:evenodd;stroke:none;stroke-width:0.76458025"
       id="path2914-1"
       d="m 163.96827,215.28314 c 1.43447,-0.29489 0.85641,1.31811 1.671,2.34774 0.81457,1.02963 1.13385,1.09505 1.58732,1.77077 0.45347,0.6757 0.59485,2.00099 0.50196,3.46184 -0.0929,1.46084 -0.79453,2.08566 -0.87352,2.38151 -0.0789,0.29588 0.1623,1.46955 0.90695,1.35141 0.74464,-0.11811 1.65193,0.0449 1.86411,-0.45311 0.21224,-0.49798 1.60813,-1.86846 1.68711,-2.1643 0.0789,-0.29588 0.50337,-1.29183 0.76977,-1.69611 0.26639,-0.40428 0.61182,-1.10439 1.17404,-1.4297 0.56226,-0.32529 1.31695,-1.07461 2.00235,-0.97086 0.68539,0.10381 2.40126,0.79956 2.69711,0.87855 0.29587,0.079 0.96618,1.12954 0.96115,1.44513 -0.005,0.31558 -3.4e-4,1.18842 -0.0646,1.7259 -0.0643,0.53747 -0.39493,1.47924 -0.49366,1.84906 -0.0987,0.36982 -1.25302,1.72555 -1.58836,1.79448 -0.33535,0.0689 -1.85444,1.01035 -2.41167,1.02006 -0.55723,0.01 -0.81861,0.0984 -1.61747,0.12279 -0.79886,0.0244 -2.15997,0.37414 -2.64826,0.71918 -0.48829,0.34504 -0.72264,0.77768 -1.50938,1.49865 -0.78674,0.72096 -1.26274,1.16831 -1.63758,1.38519 -0.37482,0.21685 -1.46989,1.3507 -1.87919,1.3999 -0.40931,0.0492 -1.90829,-0.27178 -2.42102,-0.72556 -0.51271,-0.45383 -0.32529,-0.56225 -0.87247,-1.18374 -0.54719,-0.62148 -0.9809,-1.37115 -1.7945,-1.58837 -0.81357,-0.21721 -1.5137,-0.5626 -2.47521,-0.8193 -0.96151,-0.25671 -1.17835,-0.63159 -2.19409,-0.98195 -1.01572,-0.35046 -1.21418,-0.42323 -1.80956,-0.6416 -0.59539,-0.21836 -0.50302,0.10341 -0.57196,-0.23189 -0.0689,-0.33535 0.85754,-2.54425 2.60017,-4.69371 1.74257,-2.14948 3.83737,-3.09566 4.37018,-3.90423 0.53279,-0.80856 3.99474,-3.65227 4.0693,-3.66761 z"
       inkscape:connector-curvature="0" />
    <path
       style="fill:#000000;fill-opacity:1;fill-rule:evenodd;stroke:none;stroke-width:0.76458025"
       id="path2916-5"
       d="m 128.13648,204.36972 c 0.25247,0.004 3.45521,1.08096 7.20879,2.08309 3.75358,1.00215 5.63208,1.97907 7.80552,1.92546 -0.0127,5.46376 -7.58022,20.08254 -7.85632,19.9296 -0.27597,-0.15324 -4.06755,-2.2745 -5.15218,-2.96034 -1.08467,-0.68575 -3.42703,-0.51877 -3.08631,-2.09173 0.34067,-1.57296 1.01743,-18.88718 1.08056,-18.88617 z"
       inkscape:connector-curvature="0" />
    <path
       style="fill:#000000;fill-opacity:1;fill-rule:evenodd;stroke:none;stroke-width:0.76458025"
       id="path2918-5"
       d="m 156.81815,231.67727 c 0.7361,0.24465 1.91566,0.39259 2.7463,1.28785 0.83065,0.89525 0.69116,1.49188 0.57628,2.29317 -0.11488,0.80128 -0.41936,0.68039 -1.03582,0.91197 -0.61647,0.23158 -1.54853,0.45814 -3.15596,-0.0502 -1.60742,-0.50834 -1.59637,-0.32715 -2.32729,-0.77981 -0.73093,-0.45264 -0.79385,-0.29113 -0.59637,-1.0308 0.19746,-0.73962 -0.69511,-0.66097 0.35544,-1.33132 1.05055,-0.67033 0.84714,-0.72464 1.7065,-1.04984 0.85936,-0.32521 0.6476,-0.61098 1.73092,-0.25098 z"
       inkscape:connector-curvature="0" />
    <path
       style="fill:#000000;fill-opacity:1;fill-rule:evenodd;stroke:none;stroke-width:0.76458025"
       id="path2920-4"
       d="m 182.05256,243.40614 c 1.10558,0.83 1.38905,1.10378 2.38117,2.06194 0.99212,0.95818 1.16966,0.88672 1.58733,1.77075 0.41766,0.88406 0.57905,1.24408 0.0833,1.76541 -0.49574,0.52133 -1.47458,0.4779 -2.06627,0.31992 -0.59169,-0.15797 -1.95749,-0.68109 -2.52943,-0.91301 -0.57197,-0.2319 -2.79083,-0.82428 -3.04717,-1.05125 -0.25638,-0.22688 -1.04517,-0.83368 -1.79951,-1.27278 -0.75429,-0.4392 -1.68641,-0.21253 -1.59738,-1.13957 0.089,-0.92703 0.22725,-1.44477 0.34573,-1.88855 0.11849,-0.44377 -0.3892,-1.21318 0.69079,-1.40025 1.07999,-0.18708 1.64223,-0.51237 2.14024,-0.30018 0.49797,0.21224 0.81727,0.27761 1.77007,0.78951 0.95279,0.5119 0.93552,0.42809 2.04113,1.25805 z"
       inkscape:connector-curvature="0" />
    <path
       style="fill:#000000;fill-opacity:1;fill-rule:evenodd;stroke:none;stroke-width:0.76458025"
       id="path2922-7"
       d="m 203.42401,185.05005 c 1.05949,-0.51777 1.96752,-1.20757 3.51439,-1.82552 1.54689,-0.61795 2.23361,-0.8075 2.67313,-0.6463 0.43952,0.16125 0.72673,0.68757 1.14087,1.3136 0.41414,0.62605 0.32751,0.41647 0.51567,1.19056 0.18817,0.77408 0.33551,1.04374 0.23698,1.9058 -0.0985,0.86205 -0.46736,1.58616 -0.63115,1.54242 -0.16381,-0.0437 -1.35157,0.2972 -1.57819,0.32444 -0.22663,0.0273 -1.61398,1.28002 -1.92249,1.28539 -0.30853,0.005 -0.65049,0.0128 -1.37344,0.3791 -0.72294,0.36633 -1.33268,1.04803 -1.51836,1.08621 -0.18567,0.0382 -1.28616,0.70949 -1.6247,0.66297 -0.33854,-0.0465 -0.81365,0.0899 -1.15757,-0.26517 -0.34389,-0.35503 -0.43672,-0.33598 -0.69317,-1.01859 -0.25646,-0.68264 -0.2157,-0.0137 -0.56757,-1.16053 -0.35187,-1.14682 -1.18737,-0.97506 -0.63277,-2.23083 0.55462,-1.25575 0.56018,-1.60524 1.16092,-1.88355 0.60073,-0.2783 1.11949,-0.24948 1.73384,-0.41449 0.61437,-0.165 -0.33591,0.27225 0.72359,-0.24551 z"
       inkscape:connector-curvature="0" />
    <path
       style="fill:#000000;fill-opacity:1;fill-rule:evenodd;stroke:none;stroke-width:0.76458025"
       id="path2924-6"
       d="m 148.07806,275.57416 c 0.52878,0.38394 4.38914,2.60911 4.83967,2.78489 0.45062,0.17561 2.04303,1.87216 2.49366,2.04775 0.45063,0.17561 3.58056,2.94602 3.93827,3.26264 0.35769,0.31664 0.98344,1.69984 1.20011,1.92352 0.21672,0.22365 0.15345,1.75462 -0.14526,2.61463 -0.29865,0.86002 -0.24799,0.92883 -1.04955,0.82538 -0.80158,-0.10343 -1.96455,0.31851 -3.0242,0.35347 -1.05964,0.0349 0.0791,-0.0894 -1.21438,-0.21365 -1.29353,-0.12424 -2.26369,-0.21742 -2.96884,-0.68207 -0.70513,-0.46466 -1.37247,-0.86392 -2.25994,-1.26675 -0.88747,-0.40282 -4.01415,-2.56425 -4.94274,-3.64136 -0.92858,-1.07711 -2.93729,-2.66371 -3.15046,-3.10758 -0.21318,-0.44387 -1.35493,-1.96484 -1.24823,-2.15748 0.10646,-0.19277 0.51953,-0.0824 1.33162,-0.63952 0.81209,-0.5571 1.50369,-0.86997 2.02671,-1.17257 0.52304,-0.30259 2.15048,-0.80786 2.20558,-1.01426 0.0551,-0.20641 0.88098,-0.81511 1.33161,-0.63952 0.45063,0.17561 0.56307,0.66954 0.63626,0.72267 z"
       inkscape:connector-curvature="0" />
    <path
       style="fill:#000000;fill-opacity:1;fill-rule:evenodd;stroke:none;stroke-width:0.76458025"
       id="path2926-5"
       d="m 178.02315,275.22173 c 0.68185,0.7072 1.79529,1.97185 1.72641,2.22986 -0.0689,0.258 0.66198,0.93685 0.73571,1.79953 0.0737,0.8627 -0.19983,0.95551 -0.44085,1.65125 -0.24102,0.69574 -0.27905,1.2522 -0.52328,1.13173 -0.24422,-0.12051 -0.97015,-0.0932 -1.33813,-0.57838 -0.36798,-0.4852 -0.81511,-0.88097 -1.02828,-1.32484 -0.21317,-0.44387 0.24093,-0.48849 -0.68084,-1.17681 -0.92183,-0.68834 -1.05279,-0.61233 -1.75421,-1.29753 -0.70164,-0.68484 -0.626,-0.55409 -1.00775,-0.98769 -0.38175,-0.43359 -0.92532,-0.46815 -1.02828,-1.32483 -0.10295,-0.8567 -0.29559,-0.9634 0.3066,-1.35542 0.60218,-0.39203 -0.49172,-0.84992 0.99445,-0.61898 1.48617,0.23093 1.02177,0.10695 1.64098,0.27226 0.61923,0.16533 0.79713,0.58597 1.3965,0.98094 0.59938,0.39495 0.31912,-0.10829 1.001,0.59888 z"
       inkscape:connector-curvature="0" />
    <path
       style="fill:#000000;fill-opacity:1;fill-rule:evenodd;stroke:none;stroke-width:0.76458025"
       id="path2928-6"
       d="m 174.97061,301.77015 c 0.68066,-0.8511 1.0944,-1.20036 1.22866,-1.49618 0.13422,-0.29586 0.80532,-0.94588 1.29729,-0.92508 0.49196,0.0208 1.59965,0.42708 2.13971,0.68182 0.54007,0.25473 1.52723,0.9053 1.83687,0.98791 0.30959,0.0827 0.86001,0.50587 1.26923,0.8364 0.40929,0.33044 0.69293,1.02802 0.81486,1.7101 0.12195,0.68211 -0.27104,0.54956 -0.32713,1.01828 -0.056,0.46873 0.33692,0.80858 0.10296,0.85668 -0.23395,0.0481 -1.35891,-0.0864 -1.55153,-0.19313 -0.19278,-0.10645 -0.48066,-0.5291 -1.10769,-0.40629 -0.62705,0.12281 -0.76049,0.57088 -1.4005,0.89752 -0.64,0.32665 -0.42839,0.25876 -1.15952,0.40907 -0.73112,0.1503 -0.65378,0.37824 -1.76497,0.19214 -1.11118,-0.1861 -1.0974,-0.23772 -1.71312,-0.62322 -0.6157,-0.38554 -0.81862,-0.66078 -1.08339,-1.11842 -0.26477,-0.45766 -0.32665,-0.64001 -0.23021,-1.00122 0.0964,-0.36122 1.5823,-1.74361 1.64847,-1.82636 z"
       inkscape:connector-curvature="0" />
    <path
       style="fill:#000000;fill-opacity:1;fill-rule:evenodd;stroke:none;stroke-width:0.76458025"
       id="path2930-9"
       d="m 132.54495,158.94714 c 0.58837,0.15191 4.9485,1.32116 5.5356,1.47791 0.58711,0.15674 3.32683,1.33745 3.7743,1.00766 0.44745,-0.3298 1.12413,-0.50855 1.38713,-1.15713 0.26301,-0.6486 0.9344,-1.81712 0.77236,-2.21978 -0.16206,-0.40267 -1.29109,-2.23159 -1.23492,-3.11509 0.0562,-0.88352 -0.94499,-0.16246 0.28011,-1.72226 1.2251,-1.55979 2.09761,-2.1355 3.29463,-3.25355 1.197,-1.11803 0.67668,-0.17874 2.24297,-2.00686 1.56628,-1.82811 1.90177,-1.73854 2.50597,-2.65544 0.60421,-0.91689 1.02926,-1.16282 1.18601,-1.74994 0.15675,-0.58711 -0.19544,-0.95068 0.35828,-1.34196 0.55373,-0.39127 0.91863,-0.49602 1.89569,-0.033 0.97708,0.46299 1.5932,1.77312 2.01256,1.88507 0.41936,0.11197 1.24263,0.64623 2.30936,0.43687 1.06672,-0.2094 0.51422,0.76624 1.95755,-1.2744 1.44332,-2.04065 1.02794,-1.41027 1.55529,-2.46001 0.52735,-1.04973 -0.95029,-1.15222 0.5541,-1.73894 1.50442,-0.58671 0.48655,-0.13965 1.61069,-0.64819 1.12412,-0.50855 1.99664,-1.08426 2.21488,-1.5651 0.21818,-0.48086 0.71612,-1.3363 0.94009,-2.175 0.22393,-0.83873 0.27442,-1.36436 0.62699,-2.34844 0.35257,-0.98409 0.59889,-1.90669 0.80042,-2.66154 0.20153,-0.75486 0.3135,-1.17423 0.40877,-1.8676 0.0953,-0.69337 0.14007,-0.86112 -0.0163,-1.62168 -0.15637,-0.76055 -0.044,-2.52758 -0.86034,-2.83537 -0.81634,-0.30781 -1.54308,-0.95114 -4.61871,-0.87371 -3.0756,0.0774 -7.30383,2.45272 -8.2883,3.44781 -0.98448,0.99507 -10.85205,12.37742 -12.14434,14.18883 -1.29227,1.81142 -5.66624,5.40577 -6.56155,7.41302 -0.89531,2.00725 -4.24041,5.78643 -4.63778,6.93828 -0.39736,1.15182 -1.26051,3.12274 -1.22589,4.25511 0.0346,1.13238 -0.3592,-0.1691 1.36436,0.27443 z"
       inkscape:connector-curvature="0" />
    <path
       style="fill:#000000;fill-opacity:1;fill-rule:evenodd;stroke:none;stroke-width:1.04382145"
       id="path2934-7"
       d="M 150.18817,247.15549 C 145.16714,247.30628 359.5306,126.99625 359.5306,126.99625 l 22.97611,24.49279 c 0,0 -226.26345,95.49511 -232.31854,95.66645 z"
       inkscape:connector-curvature="0"
       sodipodi:nodetypes="cccc" />
    <path
       style="fill:#000000;fill-opacity:1;fill-rule:evenodd;stroke:none;stroke-width:0.93237931"
       id="path2936-4"
       d="m 383.37713,203.87682 c 0,0 -187.17952,34.29542 -197.36353,37.45174 11.468,-0.41955 196.9037,-18.42067 196.90369,-18.42067 z m -14.50313,8.69176 c 0.19947,0.0216 0.41758,0.11954 0.8284,0.32184 1.64359,0.80885 3.0236,2.7578 2.50906,3.96211 -0.51446,1.20433 -0.92514,0.29199 -4.56189,0.83791 -3.63677,0.54592 -7.61648,2.17439 -9.98654,1.3478 -0.66593,-0.23226 -3.23908,-2.0838 -1.24587,-3.43858 1.99322,-1.35476 5.91861,-1.3005 9.24294,-1.9759 2.49324,-0.50654 2.61551,-1.12018 3.2139,-1.05518 z"
       inkscape:connector-curvature="0"
       sodipodi:nodetypes="cccccccscccc" />
    <path
       style="fill:#000000;fill-opacity:1;fill-rule:evenodd;stroke:none;stroke-width:0.87403351"
       id="path2938-5"
       d="m 173.11725,251.07847 c 4.09749,-1.16118 209.46701,3.88213 209.46701,3.88213 l 0.40077,18.10768 c 0,0 -203.61175,-20.71169 -209.86778,-21.98981 z"
       inkscape:connector-curvature="0"
       sodipodi:nodetypes="cccc" />
    <path
       style="fill:#000000;fill-opacity:1;fill-rule:evenodd;stroke:none;stroke-width:0.8714999"
       id="path2940-2"
       d="m 210.73879,268.98781 172.77742,28.32304 -1.46954,10.64073 z"
       inkscape:connector-curvature="0" />
    <path
       style="fill:#000000;fill-opacity:1;fill-rule:evenodd;stroke:none;stroke-width:0.87001026"
       id="path2942-5"
       d="m 160.14017,260.59836 c 3.78653,6.11807 222.2182,90.13381 222.2182,90.13381 l 0.64669,-21.67121 c 0,0 -217.77852,-67.62378 -222.86489,-68.4626 z m 178.79148,63.23693 32.91039,9.61409 0.22872,1.65453 -0.21905,1.81541 c 0,0 -0.13196,1.4487 -0.62001,1.19014 -0.48797,-0.25861 -32.335,-14.14915 -32.30009,-14.27418 z"
       inkscape:connector-curvature="0"
       sodipodi:nodetypes="ccccccccccc" />
    <path
       style="fill:#000000;fill-opacity:1;fill-rule:evenodd;stroke:none;stroke-width:0.79541093"
       id="path2944-4"
       d="m 158.91311,266.97649 c 7.13544,1.46468 196.70912,90.69508 196.70912,90.69508 l -50.00164,-13.81238 c 0,0 -146.73599,-72.51576 -146.70748,-76.8827 z"
       inkscape:connector-curvature="0" />
    <path
       style="fill:#000000;fill-opacity:1;fill-rule:evenodd;stroke:none;stroke-width:0.76458025"
       id="path2946-7"
       d="m 136.48313,276.86164 c 4.36848,-0.0737 77.83406,54.29232 77.83406,54.29232 l -30.66554,-6.8193 c 0,0 -46.81696,-45.04845 -47.16852,-47.47302 z"
       inkscape:connector-curvature="0" />
    <path
       style="fill:#000000;fill-opacity:1;fill-rule:evenodd;stroke:none;stroke-width:0.76458025"
       id="path2948-4"
       d="m 123.64471,222.48203 c 0.29043,-1.08783 -8.5198,-48.78116 -8.5198,-48.78116 l -9.30188,5.38165 c 0,0 8.91966,43.07016 17.82168,43.39951 z"
       inkscape:connector-curvature="0" />
    <path
       style="fill:#000000;fill-opacity:1;fill-rule:evenodd;stroke:none;stroke-width:1.08217072"
       id="path2950-4"
       d="m 126.48261,224.34986 c -1.01199,-3.88413 1.30971,-132.511347 1.30971,-132.511347 l 7.26106,-23.846678 c 0,0 -7.09309,162.029525 -8.57077,156.358025 z"
       inkscape:connector-curvature="0"
       sodipodi:nodetypes="sccs" />
    <path
       style="fill:#000000;fill-opacity:1;fill-rule:evenodd;stroke:none;stroke-width:0.84774202"
       id="path2952-3"
       d="m 135.09336,228.27412 c 3.82007,-4.28029 81.07668,-160.450025 81.07668,-160.450025 l -25.84907,0.257041 c 0,0 -55.95865,156.858724 -55.22761,160.192984 z"
       inkscape:connector-curvature="0"
       sodipodi:nodetypes="cccc" />
    <path
       style="fill:#000000;fill-opacity:1;fill-rule:evenodd;stroke:none;stroke-width:1.10793006"
       id="path2954-0"
       d="m 197.75463,203.62657 138.94431,-101.39294 12.8298,13.94956 z"
       inkscape:connector-curvature="0"
       sodipodi:nodetypes="cccc" />
    <path
       id="path2-29-0"
       d="m 215.62942,309.88107 72.30935,16.25664 c 0,0 5.58305,1.31336 7.65081,0.22911 8.58725,-5.04637 18.06997,-50.52466 13.09202,-54.49805 -1.82508,-3.86693 -10.78465,-5.16135 -10.78465,-5.16135 l -36.63714,-8.79919 z"
       style="stroke-width:0.29248601"
       inkscape:connector-curvature="0" />
  </g>
  <text
     xml:space="preserve"
     style="font-style:normal;font-variant:normal;font-weight:normal;font-stretch:normal;font-size:40px;line-height:1.25;font-family:'A Charming Font Superexpanded';-inkscape-font-specification:'A Charming Font Superexpanded';letter-spacing:0px;word-spacing:0px;fill:#000000;fill-opacity:1;stroke:none"
     x="96.859596"
     y="341.18613"
     id="text4813"><tspan
       sodipodi:role="line"
       id="tspan4811"
       x="96.859596"
       y="341.18613"
       style="font-style:normal;font-variant:normal;font-weight:normal;font-stretch:normal;font-size:85.33333588px;font-family:Impact;-inkscape-font-specification:Impact">EOD</tspan></text>
  <path
     style="opacity:1;fill:#000000;fill-opacity:1;stroke:none;stroke-width:0.33593169;stroke-miterlimit:4;stroke-dasharray:0.33593167, 0.33593167;stroke-dashoffset:0;stroke-opacity:0;filter:url(#filter2221-3)"
     d="m 156.41616,180.15377 c -2.6684,0.008 -4.97359,0.42716 -6.79883,1.30078 l -21.75391,10.41406 c -9.73463,4.6593 -2.02169,20.40107 17.29493,35.29493 19.31661,14.89385 42.70481,23.13195 52.43945,18.47265 l 21.75586,-10.41211 c 9.73463,-4.6593 2.01974,-20.40107 -17.29688,-35.29492 -15.69475,-12.10125 -34.07756,-19.80937 -45.64062,-19.77539 z"
     id="rect2197-2"
     inkscape:connector-curvature="0"
     transform="matrix(0.86344175,0,0,0.86344175,-43.15546,20.041489)" />
</svg>
